<svg width="137" height="56" viewBox="0 0 137 56" fill="none" xmlns="http://www.w3.org/2000/svg">
<path d="M2.93263 43.6575H0V42.369H7.29294V43.6575H4.37295V51.2947H2.93263V43.6575Z" fill="white"/>
<path d="M14.0125 48.6431C14.0715 49.1195 14.2865 49.5017 14.6561 49.7912C15.0257 50.0806 15.495 50.2254 16.0655 50.2254C16.4055 50.2254 16.747 50.1636 17.0913 50.0399C17.4356 49.9162 17.7011 49.7532 17.888 49.5495L18.7424 50.3785C18.4276 50.7186 18.0257 50.9814 17.5367 51.1697C17.0477 51.3566 16.5489 51.4507 16.0388 51.4507C15.0102 51.4507 14.1882 51.1486 13.5713 50.5458C12.9544 49.9429 12.6467 49.135 12.6467 48.1232C12.6467 47.1621 12.953 46.3766 13.5643 45.7639C14.1769 45.1512 14.9709 44.8463 15.9489 44.8463C17.0028 44.8463 17.8234 45.1695 18.4094 45.8159C18.9953 46.4623 19.23 47.4052 19.1105 48.6459H14.0125V48.6431ZM17.8515 47.533C17.8178 47.0482 17.6323 46.6745 17.2964 46.4103C16.9606 46.1461 16.525 46.0154 15.9896 46.0154C15.4964 46.0154 15.0734 46.1475 14.7207 46.4103C14.368 46.6745 14.1404 47.0482 14.0392 47.533H17.8515Z" fill="white"/>
<path d="M31.8261 50.4783C31.1628 51.1331 30.3689 51.4605 29.4415 51.4605C28.4888 51.4605 27.6991 51.1711 27.0695 50.5935C26.44 50.016 26.1266 49.2038 26.1266 48.1583C26.1266 47.1129 26.4414 46.3007 27.0695 45.7231C27.6991 45.1456 28.4888 44.8561 29.4415 44.8561C30.3254 44.8561 31.0828 45.1667 31.7109 45.7864L30.8692 46.666C30.487 46.2922 30.0148 46.1054 29.4541 46.1054C28.8766 46.1054 28.396 46.2951 28.0138 46.673C27.6316 47.051 27.4405 47.5471 27.4405 48.1583C27.4405 48.7963 27.6316 49.2937 28.0138 49.6506C28.396 50.0076 28.8724 50.186 29.4415 50.186C30.0542 50.186 30.5502 49.9907 30.9338 49.6001L31.8261 50.4783Z" fill="white"/>
<path d="M40.3697 42.369V45.9395C40.8545 45.2594 41.5346 44.9194 42.41 44.9194C43.2686 44.9194 43.915 45.185 44.3478 45.7161C44.782 46.2473 44.9984 46.9766 44.9984 47.9026V51.2947H43.6845V47.9152C43.6845 47.3377 43.544 46.8979 43.2644 46.5958C42.9834 46.2937 42.5969 46.1433 42.1037 46.1433C41.6021 46.1433 41.1875 46.3246 40.8601 46.6857C40.5327 47.0468 40.3697 47.4909 40.3697 48.0178V51.2947H39.0558V42.369H40.3697Z" fill="white"/>
<path d="M65.59 42.369C66.3207 42.369 66.9784 42.4926 67.5601 42.7385C68.1418 42.9844 68.6098 43.3189 68.9625 43.739C69.3152 44.1592 69.585 44.6257 69.7719 45.1358C69.9588 45.6459 70.0571 46.1855 70.0655 46.7546C70.0824 47.3321 70.0023 47.8871 69.8239 48.4183C69.6454 48.9495 69.3798 49.4314 69.0271 49.8656C68.6744 50.2998 68.2009 50.6455 67.6051 50.9055C67.0107 51.164 66.339 51.2947 65.59 51.2947H62.2105V42.369H65.59ZM63.627 49.9176H65.59C66.6102 49.9176 67.3788 49.6057 67.8973 48.9804C68.4159 48.3551 68.666 47.6103 68.6491 46.7419C68.6323 46.215 68.5213 45.7302 68.3175 45.2889C68.1137 44.8463 67.7751 44.4767 67.3044 44.1802C66.8322 43.8823 66.2603 43.7334 65.59 43.7334H63.627V49.9176Z" fill="white"/>
<path d="M77.7674 42.4462C78.04 42.3099 78.3112 42.3099 78.5838 42.4462C78.8565 42.5825 78.9913 42.82 78.9913 43.1601C78.9913 43.5001 78.855 43.7404 78.5838 43.8809C78.3112 44.0214 78.04 44.0214 77.7674 43.8809C77.4948 43.7404 77.3599 43.5001 77.3599 43.1601C77.3599 42.82 77.4962 42.5811 77.7674 42.4462ZM77.5131 44.9826V51.2947H78.8269V44.9826H77.5131Z" fill="white"/>
<path d="M92.0751 44.4093L93.032 45.1484L92.2802 46.0281C92.7903 46.6224 93.0447 47.2731 93.0447 47.9785C93.0447 48.5476 92.9042 49.045 92.6245 49.4708C92.3435 49.8951 91.9275 50.2141 91.3753 50.4277C92.4798 50.8015 93.0334 51.4858 93.0334 52.4807C93.0334 53.2887 92.7004 53.9168 92.0329 54.3679C91.3655 54.8189 90.5772 55.0438 89.668 55.0438C88.631 55.0438 87.8131 54.795 87.2131 54.2976C86.6145 53.8002 86.3265 53.1186 86.3517 52.2516H87.6656C87.6487 52.7196 87.837 53.0863 88.2333 53.3547C88.6282 53.6231 89.1073 53.7608 89.668 53.7692C90.2034 53.7692 90.6713 53.6582 91.0704 53.4376C91.4695 53.217 91.669 52.898 91.669 52.4807C91.669 52.0479 91.4877 51.712 91.1266 51.4732C90.7654 51.2357 90.2877 51.1162 89.6919 51.1162C88.6633 51.1162 87.8384 50.8352 87.2187 50.2745C86.5977 49.7139 86.2885 48.948 86.2885 47.9799C86.2885 46.985 86.6244 46.2093 87.296 45.6529C87.9677 45.0964 88.7673 44.8182 89.6933 44.8182C90.3987 44.8182 90.9636 44.9629 91.3894 45.2524L92.0751 44.4093ZM88.2178 46.5452C87.8146 46.881 87.6122 47.3588 87.6122 47.9799C87.6122 48.5841 87.8103 49.0548 88.2052 49.3949C88.6001 49.7349 89.0961 49.905 89.6905 49.905C90.2764 49.905 90.764 49.7237 91.1505 49.3626C91.5369 49.0014 91.7308 48.5405 91.7308 47.9785C91.7308 47.3841 91.5327 46.9119 91.1378 46.5634C90.743 46.2149 90.2596 46.0407 89.6905 46.0407C89.1115 46.0407 88.6211 46.2093 88.2178 46.5452Z" fill="white"/>
<path d="M100.808 42.4462C101.081 42.3099 101.352 42.3099 101.625 42.4462C101.897 42.5825 102.032 42.82 102.032 43.1601C102.032 43.5001 101.896 43.7404 101.625 43.8809C101.352 44.0214 101.081 44.0214 100.808 43.8809C100.536 43.7404 100.401 43.5001 100.401 43.1601C100.401 42.82 100.537 42.5811 100.808 42.4462ZM100.554 44.9826V51.2947H101.868V44.9826H100.554Z" fill="white"/>
<path d="M111.736 43.198V45.0219H113.573V46.1573H111.724V49.1532C111.724 49.8417 112.026 50.186 112.629 50.186C112.875 50.186 113.143 50.1143 113.433 49.9696L113.815 51.0924C113.39 51.2792 112.969 51.3734 112.553 51.3734C111.864 51.3903 111.335 51.2104 110.965 50.831C110.595 50.453 110.41 49.8937 110.41 49.1546V46.1587H109.199V45.0233H110.41V43.3399L111.736 43.198Z" fill="white"/>
<path d="M126.005 45.0079H127.279V51.2947H126.03L125.967 50.2745C125.771 50.6568 125.468 50.9504 125.055 51.1542C124.643 51.3579 124.224 51.4605 123.799 51.4605C122.854 51.469 122.081 51.1795 121.477 50.5935C120.874 50.0076 120.572 49.1911 120.572 48.1457C120.572 47.1255 120.88 46.3246 121.497 45.7414C122.114 45.1597 122.889 44.8674 123.824 44.8674C124.275 44.8674 124.695 44.9699 125.086 45.1737C125.476 45.3775 125.77 45.6543 125.965 46.0028L126.005 45.0079ZM122.474 46.6337C122.083 47.0117 121.888 47.5162 121.888 48.1443C121.888 48.7724 122.083 49.2797 122.474 49.6619C122.864 50.0441 123.349 50.2352 123.926 50.2352C124.3 50.2352 124.635 50.1593 124.927 50.0062C125.219 49.853 125.441 49.6534 125.59 49.4075C125.739 49.1616 125.85 48.8904 125.922 48.5982C125.994 48.3045 125.994 48.0094 125.922 47.7115C125.85 47.4136 125.739 47.1424 125.59 46.8951C125.441 46.6492 125.221 46.4482 124.927 46.2965C124.633 46.1447 124.3 46.0674 123.926 46.0674C123.349 46.0674 122.864 46.2557 122.474 46.6337Z" fill="white"/>
<path d="M136.486 42.3816V51.2947H135.172V42.3816H136.486Z" fill="white"/>
<path d="M7.3112 25.0682V30.0454L6.0929 31.2272C4.37436 32.9064 2.67267 34.5532 0.871218 36.2971C0.581749 36.5781 0.290874 36.8578 0 37.1402V25.0682H7.3112Z" fill="#F38028"/>
<path d="M7.3112 25.0682V30.0454L6.0929 31.2272C4.37436 32.9064 2.67267 34.5532 0.871218 36.2971C0.581749 36.5781 0.290874 36.8578 0 37.1402V25.0682H7.3112Z" fill="#F38028"/>
<path d="M31.2911 1.45539V39.1623H31.1674L28.4905 36.6666C25.0872 33.4923 21.6852 30.3152 18.2846 27.1395L15.3281 24.3797C14.8026 23.8892 14.2784 23.3988 13.7543 22.9084C12.0358 21.2995 10.2568 19.6357 8.48765 18.0198C8.14197 17.7036 7.58552 17.4858 7.10354 17.4774C6.14098 17.4605 5.10957 17.4535 3.76059 17.4535C3.20835 17.4535 2.65471 17.4549 2.10247 17.4563C1.55023 17.4577 0.999393 17.4577 0.447154 17.4577H0.00170898V0.0206909H0.0452695L2.51278 2.32942V2.34066L2.64768 2.46713C8.02534 7.48365 13.4859 12.5929 18.7652 17.5322L22.7321 21.2433C22.8276 21.3332 22.926 21.4147 23.0496 21.5187C23.1143 21.5749 23.1902 21.6367 23.2773 21.7126L23.9771 22.3126V1.45539H31.2911Z" fill="#010101"/>
<path d="M31.2911 1.45539V39.1623H31.1674L28.4905 36.6666C25.0872 33.4923 21.6852 30.3152 18.2846 27.1395L15.3281 24.3797C14.8026 23.8892 14.2784 23.3988 13.7543 22.9084C12.0358 21.2995 10.2568 19.6357 8.48765 18.0198C8.14197 17.7036 7.58552 17.4858 7.10354 17.4774C6.14098 17.4605 5.10957 17.4535 3.76059 17.4535C3.20835 17.4535 2.65471 17.4549 2.10247 17.4563C1.55023 17.4577 0.999393 17.4577 0.447154 17.4577H0.00170898V0.0206909H0.0452695L2.51278 2.32942V2.34066L2.64768 2.46713C8.02534 7.48365 13.4859 12.5929 18.7652 17.5322L22.7321 21.2433C22.8276 21.3332 22.926 21.4147 23.0496 21.5187C23.1143 21.5749 23.1902 21.6367 23.2773 21.7126L23.9771 22.3126V1.45539H31.2911Z" fill="white"/>
<path d="M108.07 9.54651C106.838 7.46964 105.204 5.59652 103.186 4.06205C99.8134 1.45543 95.7468 0.0727186 91.6156 0.00386434C91.5495 0.00245915 91.4849 0.00245908 91.4188 0.00105389C91.312 -0.000351297 91.2066 -0.000351297 91.0999 0.00105389C90.9748 0.00245908 90.8497 0.00386417 90.7247 0.00807973C86.7114 0.112064 82.7685 1.45402 79.4719 3.95666C79.4368 3.98336 79.4017 4.01006 79.3651 4.03676C77.3402 5.56982 75.699 7.44434 74.4624 9.52262C74.447 9.54651 74.4329 9.56899 74.4203 9.59288C72.5752 12.6421 71.6773 15.9753 71.6928 19.5529C71.69 19.9533 71.7012 20.3552 71.7237 20.7557H71.7307C71.7363 20.8555 71.742 20.9552 71.7504 21.0564C73.7697 21.0775 75.8254 21.1745 77.9121 21.3431C77.7351 20.0194 77.759 18.6873 77.9712 17.3889C77.9782 17.3453 77.9866 17.3003 77.9937 17.2568C78.0021 17.209 78.0105 17.1626 78.0189 17.1163C78.0218 17.1022 78.0246 17.0896 78.026 17.0755C78.0428 16.9856 78.0611 16.8971 78.0794 16.8085C78.0864 16.772 78.0948 16.7369 78.1033 16.7003C78.1047 16.6919 78.1061 16.6835 78.1089 16.675C78.2817 15.8923 78.5192 15.1448 78.8115 14.4352C78.855 14.3298 78.9 14.2258 78.945 14.1218C78.9843 14.0319 79.0251 13.9405 79.0686 13.8506C79.1108 13.7607 79.1529 13.6721 79.1979 13.5836C79.2387 13.4993 79.2822 13.4164 79.3244 13.3335C79.3286 13.3251 79.3328 13.318 79.337 13.3096C79.3623 13.2604 79.389 13.2112 79.4157 13.1621C79.4284 13.1382 79.441 13.1171 79.4536 13.0946C79.4733 13.0567 79.4958 13.0187 79.5155 12.9822C79.5365 12.9443 79.5576 12.9063 79.5801 12.8698C79.6026 12.8304 79.6251 12.7897 79.649 12.7503C79.7417 12.593 79.8373 12.4384 79.9356 12.2852C79.982 12.2122 80.0298 12.1405 80.0775 12.0688C80.1309 11.9887 80.1857 11.91 80.242 11.8313C80.2954 11.7527 80.3516 11.6768 80.4092 11.5995C80.4148 11.5911 80.4204 11.5826 80.426 11.5756C80.4654 11.5222 80.5033 11.4702 80.5441 11.4182C80.5497 11.4112 80.5553 11.4028 80.5609 11.3957C80.6368 11.2974 80.7141 11.2004 80.7928 11.1035C80.7998 11.0964 80.8054 11.088 80.8111 11.081C80.8054 11.088 80.7984 11.0964 80.7928 11.1035C80.8673 11.0121 80.9431 10.9222 81.0204 10.8323C81.0092 10.8463 80.9965 10.859 80.9853 10.873C81.012 10.8421 81.0373 10.8112 81.064 10.7803C81.0485 10.7971 81.0345 10.8154 81.0204 10.8323C81.078 10.7662 81.1342 10.7002 81.1933 10.6341C81.1623 10.6679 81.1314 10.7016 81.1005 10.7367C81.1848 10.6397 81.2706 10.5456 81.3577 10.45C81.3155 10.495 81.2762 10.5414 81.2354 10.5864C83.7943 7.75349 87.4717 6.12768 91.2586 6.11082C95.0794 6.12909 98.7933 7.7844 101.356 10.6707C101.397 10.7156 101.438 10.7634 101.477 10.8098C101.453 10.7831 101.429 10.7536 101.406 10.7269C101.429 10.7536 101.453 10.7817 101.477 10.8098H101.476C101.519 10.8604 101.564 10.9095 101.606 10.9615C101.656 11.022 101.705 11.0796 101.754 11.1414C101.814 11.2159 101.873 11.2903 101.931 11.3662C101.976 11.4238 102.021 11.4829 102.066 11.5433C102.073 11.5531 102.081 11.563 102.088 11.5742C102.115 11.6107 102.142 11.6473 102.169 11.6838C102.235 11.7723 102.298 11.8623 102.36 11.9536C102.407 12.021 102.452 12.0885 102.497 12.1574C102.524 12.1967 102.551 12.2374 102.576 12.2782C102.676 12.4314 102.773 12.5873 102.864 12.7461C102.899 12.8037 102.932 12.8614 102.964 12.919C103.02 13.0159 103.073 13.1143 103.127 13.2127C103.149 13.2534 103.17 13.2942 103.193 13.3363C103.227 13.3995 103.259 13.4628 103.29 13.5274C103.307 13.5597 103.324 13.5906 103.338 13.6244C103.38 13.7087 103.419 13.793 103.46 13.8787C103.498 13.9588 103.534 14.0403 103.57 14.1204C103.61 14.2117 103.65 14.3031 103.688 14.3944C103.725 14.4872 103.763 14.5799 103.8 14.6726C103.838 14.7668 103.873 14.8609 103.907 14.9551C103.942 15.0478 103.974 15.1406 104.005 15.2333C104.007 15.2389 104.009 15.246 104.011 15.253C104.043 15.3457 104.074 15.4385 104.102 15.5312C104.133 15.6296 104.164 15.7265 104.191 15.8263C104.248 16.023 104.302 16.2226 104.349 16.4249C104.349 16.4277 104.351 16.4305 104.351 16.4319C104.375 16.5317 104.397 16.6315 104.418 16.7312C104.429 16.7818 104.439 16.8338 104.451 16.8844C104.459 16.9238 104.466 16.9617 104.474 17.001C104.487 17.0657 104.5 17.1303 104.511 17.195C104.533 17.3172 104.553 17.4395 104.571 17.5617C104.573 17.5631 104.573 17.5631 104.573 17.5631C104.58 17.6137 104.588 17.6643 104.594 17.7163C104.604 17.7823 104.612 17.847 104.621 17.913C104.618 17.8976 104.615 17.8835 104.614 17.8695C104.93 20.3482 104.557 22.9295 103.428 25.3282C103.399 25.3886 103.37 25.449 103.34 25.5095C103.319 25.5502 103.3 25.591 103.279 25.6317C103.259 25.6725 103.236 25.7132 103.217 25.754C102.878 26.4046 102.489 27.0271 102.051 27.613C102.027 27.6439 102.003 27.6763 101.979 27.7086C101.945 27.7536 101.911 27.7985 101.876 27.8435C99.9329 30.377 97.0705 32.253 93.5561 32.8628C92.7959 32.9949 92.0371 33.061 91.2882 33.0652H91.2263C90.4774 33.0624 89.7171 32.9963 88.9569 32.8628C85.4426 32.253 82.5788 30.377 80.6368 27.8435C80.6003 27.7999 80.5666 27.7536 80.5328 27.7086C80.5089 27.6763 80.4851 27.6454 80.4626 27.613C80.0256 27.0271 79.6349 26.4046 79.2963 25.754C79.2752 25.7132 79.2541 25.6725 79.2344 25.6317C79.2134 25.591 79.1937 25.5502 79.1726 25.5095C79.1178 25.3971 79.0644 25.2846 79.0138 25.1708C79.0124 25.1694 79.0124 25.1694 79.011 25.1708C76.8723 25.2551 74.742 25.4167 72.6357 25.6528C73.1977 27.3868 74.0156 29.0604 75.0962 30.6187C76.1992 32.2474 77.537 33.6877 79.0518 34.8989C79.0785 34.92 79.1037 34.9411 79.1319 34.9622C80.6986 36.2212 82.42 37.1978 84.2889 37.8906C85.2262 38.2461 86.1971 38.5328 87.192 38.7421C87.2581 38.7576 87.3241 38.7688 87.3916 38.7829C87.466 38.7983 87.5391 38.8124 87.6136 38.825C87.8637 38.8728 88.1166 38.915 88.371 38.9515C88.4258 38.9599 88.4806 38.967 88.5354 38.9754C89.4249 39.1019 90.3214 39.1665 91.2249 39.1609H91.2867C92.1917 39.1665 93.0882 39.1033 93.9777 38.9754C94.0325 38.9684 94.0873 38.9599 94.1421 38.9515C94.3964 38.9136 94.6494 38.8714 94.8995 38.825C94.974 38.8124 95.047 38.7983 95.1215 38.7829C95.1876 38.7702 95.2536 38.7562 95.321 38.7421C97.0466 38.3922 98.6598 37.833 100.159 37.07C100.772 37.6812 101.386 38.2883 102.003 38.8953C102.145 39.0344 102.391 39.137 102.589 39.1398C105.219 39.1553 107.85 39.1511 110.482 39.1511C110.58 39.1511 110.677 39.1384 110.73 39.1342C108.843 37.247 106.956 35.3584 105.067 33.4699C105.566 32.9682 106.048 32.4328 106.511 31.868C108.502 29.4328 109.787 26.6575 110.434 23.5815C110.452 23.493 110.465 23.4031 110.482 23.278C110.482 23.2738 110.483 23.2696 110.483 23.2654C110.484 23.2626 110.484 23.2598 110.484 23.2584C110.487 23.2443 110.49 23.2274 110.491 23.2134C110.584 22.7089 110.659 22.1974 110.711 21.6803C110.742 21.3712 110.767 21.0634 110.784 20.7571H110.791C110.813 20.3566 110.825 19.9562 110.822 19.5557C110.836 15.9767 109.939 12.6435 108.094 9.59429C108.089 9.57883 108.08 9.56337 108.07 9.54651Z" fill="#F38028"/>
<path d="M123.681 38.4976C120.408 38.4976 117.7 37.6686 115.633 36.0315C113.736 34.5308 112.308 32.2993 111.38 29.3892H118.042C119.251 31.8089 121.212 33.0343 123.876 33.0343C125.476 33.0343 126.804 32.6029 127.822 31.7527C128.876 30.8745 129.41 29.7054 129.41 28.2805C129.41 27.1943 129.037 26.2092 128.304 25.3563C127.59 24.5286 126.079 23.7052 123.683 22.841C120.821 21.8194 118.668 20.8878 117.284 20.0686C115.959 19.2859 114.849 18.1477 113.983 16.6849C113.122 15.2291 112.685 13.5401 112.685 11.6655C112.685 8.45046 113.729 5.78622 115.786 3.74729C117.846 1.70555 120.624 0.669922 124.043 0.669922C130.149 0.669922 133.931 3.21894 135.588 8.45467L129.901 10.6327C128.779 7.64529 126.83 6.1319 124.098 6.1319C122.701 6.1319 121.566 6.54643 120.727 7.36284C119.882 8.18488 119.454 9.1643 119.454 10.2744C119.454 11.5644 119.968 12.6084 120.984 13.3785C121.886 14.0614 123.672 14.9157 126.447 15.9865L126.456 15.9893C128.849 16.8774 130.749 17.7655 132.105 18.6268C133.406 19.4531 134.474 20.5969 135.278 22.0232C136.08 23.4466 136.486 25.1301 136.486 27.0271C136.486 30.4094 135.358 33.1045 133.038 35.2657C130.736 37.4114 127.587 38.4976 123.681 38.4976Z" fill="#F38028"/>
<path d="M63.1914 28.1582L69.4262 39.1623H77.2531L70.6249 27.6383L63.1914 28.1582Z" fill="#F38028"/>
<path d="M88.4651 24.0396C81.4954 22.7117 74.5664 22.0878 67.6599 22.359C65.1544 22.456 62.6504 22.6724 60.1491 23.0152C55.0033 23.7192 49.866 24.9614 44.7272 26.8191C47.7666 21.6114 50.6332 16.7017 53.622 11.5798C54.9851 13.9531 56.2202 16.1424 57.4765 18.2811C57.683 18.6324 57.8896 18.9809 58.0976 19.3308C58.3421 19.7411 58.8803 20.2849 59.2498 20.261C61.4447 20.1233 63.6298 19.8353 66.027 19.5739C62.2316 12.992 58.5444 6.59979 54.7504 0.0206909C53.4703 2.24089 52.1944 4.45407 50.9184 6.66443C44.6892 17.4675 38.5092 28.1877 32.1802 39.1623C41.7383 33.0553 51.6365 28.7175 61.9773 26.2528C64.3282 25.6935 66.7015 25.2298 69.1002 24.8659C75.3842 23.9089 81.8312 23.6265 88.4651 24.0396Z" fill="#F38028"/>
</svg>
